<?xml version="1.0" encoding="UTF-8" standalone="no"?>
<svg
   xmlns:dc="http://purl.org/dc/elements/1.1/"
   xmlns:cc="http://creativecommons.org/ns#"
   xmlns:rdf="http://www.w3.org/1999/02/22-rdf-syntax-ns#"
   xmlns:svg="http://www.w3.org/2000/svg"
   xmlns="http://www.w3.org/2000/svg"
   xml:space="preserve"
   style="enable-background:new 0 0 282.235 282.235;"
   viewBox="0 0 282.235 282.235"
   y="0px"
   x="0px"
   id="Capa_1"
   version="1.1"><metadata
   id="metadata40"><rdf:RDF><cc:Work
       rdf:about=""><dc:format>image/svg+xml</dc:format><dc:type
         rdf:resource="http://purl.org/dc/dcmitype/StillImage" /><dc:title></dc:title></cc:Work></rdf:RDF></metadata><defs
   id="defs38"><clipPath
     id="clipPath953"
     clipPathUnits="userSpaceOnUse"><g
       id="use955"><path
         clip-path="none"
         id="path968"
         d="m 245.11099,234.63421 a 8.9248276,8.9248276 0 0 1 8.39985,9.33315 v 9.33315 a 8.9248276,8.9248276 0 0 1 -8.39985,9.33315 H 9.9155245 a 8.9248276,8.9248276 0 0 1 -8.3998379,-9.33315 v -9.33315 a 8.9248276,8.9248276 0 0 1 8.3998379,-9.33315 z M 30.681791,66.637443 A 8.4581703,8.4581703 0 0 1 38.8483,75.153945 V 207.45139 a 8.4581703,8.4581703 0 0 1 -8.166509,8.51651 H 9.7988595 A 8.4581703,8.4581703 0 0 1 1.5156866,207.45139 V 75.153945 a 8.4581703,8.4581703 0 0 1 8.2831729,-8.516502 z m 110.831199,0 a 8.9831603,8.9831603 0 0 1 9.33315,8.516502 V 207.45139 a 8.9831603,8.9831603 0 0 1 -9.33315,8.51651 h -27.99946 a 8.9831603,8.9831603 0 0 1 -9.33316,-8.51651 V 75.153945 a 8.9831603,8.9831603 0 0 1 9.33316,-8.516502 z m -55.998923,0 a 8.9831603,8.9831603 0 0 1 9.333154,8.516502 V 207.45139 a 8.9831603,8.9831603 0 0 1 -9.333154,8.51651 H 76.180914 A 8.9831603,8.9831603 0 0 1 66.84776,207.45139 V 75.153945 a 8.9831603,8.9831603 0 0 1 9.333154,-8.516502 z m 133.580773,0 a 6.5915396,6.5915396 0 0 1 5.01656,2.449952 l 55.24061,62.123805 a 8.3998381,8.3998381 0 0 1 2.15828,5.83322 8.2248414,8.2248414 0 0 1 -2.15828,5.83322 l -55.00728,61.30715 a 6.5332074,6.5332074 0 0 1 -5.01657,2.44995 6.416543,6.416543 0 0 1 -5.01658,-2.44995 l -10.03314,-11.25811 a 8.3998381,8.3998381 0 0 1 -2.1583,-5.83323 8.2248414,8.2248414 0 0 1 2.1583,-5.83322 l 17.49968,-19.48295 a 5.8332209,5.8332209 0 0 0 0.99165,-5.83322 4.7832411,4.7832411 0 0 0 -4.37492,-3.32494 h -40.83256 a 8.749831,8.749831 0 0 1 -7.64152,-8.16651 v -15.9247 a 8.2248414,8.2248414 0 0 1 7.64152,-8.10816 h 40.83256 a 4.8999055,4.8999055 0 0 0 4.37492,-3.32495 5.8332209,5.8332209 0 0 0 -0.99165,-5.83321 L 204.27844,91.83696 a 8.4581703,8.4581703 0 0 1 -2.09996,-5.833226 8.6331671,8.6331671 0 0 1 2.09996,-5.833217 l 10.09148,-11.31645 a 6.416543,6.416543 0 0 1 4.72492,-2.216624 z m 26.01615,-46.665767 a 8.9248276,8.9248276 0 0 1 8.39985,9.333154 v 9.333152 a 8.9248276,8.9248276 0 0 1 -8.39985,9.333154 H 9.9155245 A 8.9248276,8.9248276 0 0 1 1.5156866,38.637982 V 29.30483 a 8.9248276,8.9248276 0 0 1 8.3998379,-9.333154 z"
         style="stroke-width:5.83322096" /></g></clipPath></defs>

<path
   style="fill:#00384e;fill-opacity:1;stroke-width:5.83322096"
   d="m 245.11099,234.63421 c 4.88505,0.28232 8.63187,4.44545 8.39985,9.33315 v 9.33315 c 0.23202,4.8877 -3.5148,9.05083 -8.39985,9.33315 H 9.9155245 c -4.8850482,-0.28233 -8.63186,-4.44545 -8.3998379,-9.33315 v -9.33315 c -0.2320221,-4.8877 3.5147897,-9.05082 8.3998379,-9.33315 z M 30.681791,66.637443 c 4.579755,0.157888 8.200833,3.934155 8.166509,8.516502 V 207.45139 c 0.03433,4.58235 -3.586751,8.35862 -8.166509,8.51651 H 9.7988595 c -4.6256196,-0.0956 -8.3160726,-3.89002 -8.2831729,-8.51651 V 75.153945 C 1.4827913,70.527458 5.173243,66.733049 9.7988595,66.637443 Z m 110.831199,0 c 4.91915,-0.19825 9.0814,3.599804 9.33315,8.516502 V 207.45139 c -0.25175,4.9167 -4.414,8.71476 -9.33315,8.51651 h -27.99946 c -4.91915,0.19826 -9.08141,-3.59981 -9.33316,-8.51651 V 75.153945 c 0.25175,-4.916702 4.41401,-8.714757 9.33316,-8.516502 z m -55.998923,0 c 4.919147,-0.198252 9.081399,3.599803 9.333154,8.516502 V 207.45139 c -0.25175,4.9167 -4.414004,8.71476 -9.333154,8.51651 h -9.333153 c -4.91915,0.19825 -9.081404,-3.59981 -9.333154,-8.51651 V 75.153945 c 0.251755,-4.916699 4.414007,-8.714754 9.333154,-8.516502 z M 245.11099,19.971676 c 4.88505,0.282325 8.63187,4.445452 8.39985,9.333154 v 9.333152 c 0.23202,4.887702 -3.5148,9.050829 -8.39985,9.333154 H 9.9155245 C 5.0304747,47.688805 1.2836622,43.52568 1.5156866,38.637982 V 29.30483 C 1.2836622,24.417132 5.0304747,20.254007 9.9155245,19.971676 Z"
   id="path982"
   clip-path="none" /><g
   id="g5">
</g>
<g
   id="g7">
</g>
<g
   id="g9">
</g>
<g
   id="g11">
</g>
<g
   id="g13">
</g>
<g
   id="g15">
</g>
<g
   id="g17">
</g>
<g
   id="g19">
</g>
<g
   id="g21">
</g>
<g
   id="g23">
</g>
<g
   id="g25">
</g>
<g
   id="g27">
</g>
<g
   id="g29">
</g>
<g
   id="g31">
</g>
<g
   id="g33">
</g>
<path
   clip-path="none"
   id="path937"
   d="m 219.09484,66.637443 c 1.95254,0.03322 3.78985,0.930511 5.01656,2.449952 l 55.24061,62.123805 c 1.43932,1.59661 2.21175,3.68428 2.15828,5.83322 0.0718,2.15196 -0.70306,4.24627 -2.15828,5.83322 l -55.00728,61.30715 c -1.2215,1.52598 -3.06208,2.42487 -5.01657,2.44995 -1.95846,-0.008 -3.8059,-0.91051 -5.01658,-2.44995 l -10.03314,-11.25811 c -1.43932,-1.59661 -2.21176,-3.68428 -2.1583,-5.83323 -0.0718,-2.15196 0.70307,-4.24628 2.1583,-5.83322 l 17.49968,-19.48295 c 1.36535,-1.62004 1.74496,-3.85301 0.99165,-5.83322 -0.61269,-1.91897 -2.36197,-3.24842 -4.37492,-3.32494 h -40.83256 c -4.18155,-0.52655 -7.39357,-3.95924 -7.64152,-8.16651 v -15.9247 c 0.0499,-4.27911 3.37288,-7.80495 7.64152,-8.10816 h 40.83256 c 2.00103,-0.10938 3.73376,-1.42627 4.37492,-3.32495 0.7533,-1.98021 0.3737,-4.21317 -0.99165,-5.83321 L 204.27844,91.83696 c -1.41305,-1.608539 -2.1635,-3.693114 -2.09996,-5.833226 -0.0464,-2.137345 0.70187,-4.215889 2.09996,-5.833217 l 10.09148,-11.31645 c 1.18977,-1.374951 2.90702,-2.180573 4.72492,-2.216624 z"
   style="fill:#cb4f24;fill-opacity:1;stroke-width:5.83322096" /></svg>